# xmcd
#
# Track frame offsets:
#	150
#	15438
#	39021
#	59289
#	76852
#	96640
#	109058
#	126354
#	142898
#	158603
#	175033
#	195380
#
# Disc length: 2782
#
# Revision: 3
# Processed by: cddbd v1.5.1PL0 Copyright (c) Steve Scherf et al.
# Submitted via: VisiTrax 2.9.9.202 - For more info visit www.synapsa.com
# Normalized: r2:DSETVAR1
#
DISCID=8a0adc0c
DTITLE=Various Artist - Today's Country Hits - Disc 6
DYEAR=2002
DGENRE=Country
TTITLE0=Chad Brock - Yes
TTITLE1=Dixie Chicks - Cold Day In July
TTITLE2=Faith Hill and Tim McGraw - Just To Hear You Say You Love Me
TTITLE3=Garth Brooks - Standing Outside The Fire
TTITLE4=Gary Allen - Smoke Rings In The Dark
TTITLE5=Joe Diffie - Texas Size Heartache
TTITLE6=Kenny Chesney - You Had Me From Hello
TTITLE7=LeAnn Womack - I'll Think Of A Reason Later
TTITLE8=Lonestar - Tell Her That You Love Her
TTITLE9=Tammy Cochran - Angels In The Waiting
TTITLE10=Tim McGraw - Please Remember Me
TTITLE11=Tracy Lawrence - Lessons Learned
EXTD=
EXTT0=
EXTT1=
EXTT2=
EXTT3=
EXTT4=
EXTT5=
EXTT6=
EXTT7=
EXTT8=
EXTT9=
EXTT10=
EXTT11=
PLAYORDER=
